<?xml version="1.0" ?>
<!-- Uploaded to: SVG Repo, www.svgrepo.com, Generator: SVG Repo Mixer Tools -->
<svg width="800px" height="800px" viewBox="0 0 64 64" xmlns="http://www.w3.org/2000/svg">
<g id="a"/>
<g id="b"/>
<g id="c"/>
<g id="d"/>
<g id="e"/>
<g id="f"/>
<g id="g"/>
<g id="h"/>
<g id="i"/>
<g id="j"/>
<g id="k"/>
<g id="l"/>
<g id="m"/>
<g id="n"/>
<g id="o"/>
<g id="p"/>
<g id="q"/>
<g id="r"/>
<g id="s"/>
<g id="t"/>
<g id="u"/>
<g id="v"/>
<g id="w"/>
<g id="x"/>
<g id="y"/>
<g id="a`"/>
<g id="aa"/>
<g id="ab"/>
<g id="ac"/>
<g id="ad"/>
<g id="ae"/>
<g id="af"/>
<g id="ag"/>
<g id="ah"/>
<g id="ai"/>
<g id="aj"/>
<g id="ak"/>
<g id="al"/>
<g id="am"/>
<g id="an"/>
<g id="ao"/>
<g id="ap"/>
<g id="aq"/>
<g id="ar"/>
<g id="as">
<path d="M56.69,37.71l-14.01-.9-18.44,9.59,25.75,6.9c1.3,.35,2.63-.42,2.98-1.72l3.72-13.87Z" fill="#f5e680" fill-rule="evenodd"/>
<polygon fill="#f2d865" fill-rule="evenodd" points="42.68 36.81 24.24 46.4 34.24 49.08 55.15 43.48 56.69 37.71 42.68 36.81"/>
<path d="M18.78,47.86l1.75-13.1-8.95-13.77-4.77,1.28c-1.3,.35-2.07,1.68-1.72,2.98l5.94,22.17c.35,1.3,1.68,2.07,2.98,1.72l4.77-1.28Z" fill="#f0f3f5" fill-rule="evenodd"/>
<path d="M50.72,10.62c-.24-.01-.48,.01-.73,.08L11.58,20.99l7.2,26.87,38.42-10.29c1.3-.35,2.07-1.68,1.72-2.98l-5.94-22.17c-.28-1.06-1.22-1.76-2.25-1.8Z" fill="#e8a3c1" fill-rule="evenodd"/>
<path d="M51.63,20.61c-1-3.72-4.82-5.92-8.54-4.93-3.72,1-5.92,4.82-4.93,8.54s4.82,5.92,8.54,4.93c3.72-1,5.92-4.82,4.93-8.54Z" fill="#f0f3f5" fill-rule="evenodd"/>
<path d="M57.19,37.57c1.3-.35,2.07-1.68,1.72-2.98l-5.94-22.17c-.28-1.06-1.22-1.76-2.25-1.8-.24-.01-.48,.01-.73,.08l-2.41,.64c.16-.02,.32-.04,.48-.03,1.04,.04,1.97,.74,2.25,1.8l5.94,22.17c.35,1.3-.42,2.63-1.72,2.98l2.65-.69Z" fill="#e38fb6" fill-rule="evenodd"/>
<path d="M10.06,47.68c.24,.89,.81,1.63,1.6,2.09,.53,.31,1.11,.46,1.71,.46,.3,0,.6-.04,.9-.12l9.97-2.67,25.49,6.83c.3,.08,.6,.12,.9,.12,.59,0,1.18-.16,1.71-.46,.79-.46,1.36-1.2,1.6-2.09l3.57-13.33c1.79-.52,2.85-2.37,2.37-4.17l-5.94-22.17c-.24-.89-.81-1.63-1.6-2.09s-1.72-.58-2.61-.34L6.55,21.3h0c-1.83,.49-2.92,2.38-2.43,4.2l5.94,22.17Zm41.95,3.64c-.1,.37-.34,.68-.67,.87s-.72,.24-1.09,.14l-22.15-5.93,27.18-7.28-3.27,12.2Zm-1.76-39.65c.37-.1,.76-.05,1.09,.14,.33,.19,.57,.5,.67,.87l5.94,22.17c.2,.76-.25,1.55-1.02,1.75l-37.45,10.03-6.68-24.94L50.25,11.67ZM7.07,23.24h0l3.81-1.02,6.68,24.94-3.81,1.02c-.37,.1-.76,.05-1.09-.14-.33-.19-.57-.5-.67-.87L6.05,24.99c-.2-.76,.25-1.55,1.02-1.75Z"/>
<path d="M44.9,30.39c.68,0,1.37-.09,2.06-.27,2.04-.55,3.76-1.87,4.83-3.72,1.07-1.85,1.36-4,.81-6.04-.93-3.48-4.1-5.91-7.7-5.91-.7,0-1.4,.09-2.06,.27-3.48,.94-5.91,4.1-5.91,7.7,0,.7,.09,1.39,.27,2.07,.95,3.56,4.18,5.91,7.7,5.91Zm-1.54-13.74c.5-.14,1.02-.21,1.54-.21,2.7,0,5.07,1.82,5.77,4.43h0c.41,1.53,.19,3.13-.61,4.52-.8,1.39-2.09,2.38-3.61,2.79-3.18,.85-6.46-1.04-7.31-4.22-.14-.5-.2-1.03-.2-1.55,0-2.69,1.82-5.06,4.43-5.77Z"/>
<path d="M42.21,21.68c.17,.62,.57,1.15,1.13,1.47,.56,.32,1.21,.4,1.82,.23,.22-.06,.45,.07,.51,.29,.04,.15,0,.26-.04,.32-.03,.05-.11,.15-.25,.19-.15,.04-.26,0-.32-.04-.48-.27-1.09-.11-1.37,.37-.28,.48-.11,1.09,.37,1.37,.24,.14,.52,.16,.79,.21l.05,.18c.12,.45,.52,.74,.97,.74,.09,0,.17-.01,.26-.03,.53-.14,.85-.69,.71-1.23l-.03-.12c.22-.18,.41-.39,.56-.64,.32-.56,.41-1.21,.24-1.84-.35-1.28-1.67-2.05-2.96-1.7-.13,.04-.24,0-.3-.04-.06-.03-.15-.11-.19-.25-.06-.23,.07-.46,.29-.52,.14-.03,.26,.02,.32,.05,.48,.28,1.09,.11,1.37-.37s.11-1.09-.37-1.37c-.25-.15-.52-.23-.8-.27l-.03-.13c-.14-.53-.69-.85-1.23-.71-.53,.14-.85,.69-.71,1.23l.03,.12c-.7,.59-1.05,1.54-.8,2.48Z"/>
<path d="M29.64,20.39c.14,.08,.3,.12,.46,.12,.33,0,.63-.17,.8-.45,.08-.14,.12-.3,.12-.46,0-.33-.18-.64-.46-.8-.14-.08-.3-.12-.46-.12-.33,0-.63,.17-.8,.46-.08,.14-.12,.3-.12,.46,0,.32,.18,.63,.46,.79Z"/>
<path d="M26.85,21.14c.14,.08,.3,.12,.46,.12,.33,0,.63-.17,.8-.46,.08-.14,.12-.29,.12-.45,0-.33-.18-.64-.46-.8-.14-.08-.3-.12-.46-.12-.33,0-.63,.17-.8,.46-.08,.14-.12,.29-.12,.46,0,.32,.18,.63,.46,.79Z"/>
<path d="M24.51,22.01c.33,0,.63-.17,.8-.46,.08-.14,.12-.29,.12-.46,0-.32-.18-.63-.46-.79-.14-.08-.3-.12-.46-.12-.33,0-.63,.17-.8,.45-.08,.14-.12,.3-.12,.46,0,.33,.18,.64,.46,.8,.14,.08,.3,.12,.46,.12Z"/>
<path d="M16.64,24.2c.09,0,.17-.01,.26-.03l4.55-1.22c.53-.14,.85-.69,.71-1.23-.14-.53-.69-.85-1.22-.71l-4.55,1.22c-.53,.14-.85,.69-.71,1.23,.12,.45,.52,.74,.97,.74Z"/>
<path d="M30.36,23.09c-.25,.44-.1,1,.34,1.26,.44,.25,1,.1,1.25-.34,.25-.44,.1-1-.34-1.25-.44-.26-1-.11-1.25,.33Z"/>
<path d="M16.73,27.42c.12,.45,.52,.74,.97,.74,.09,0,.17-.01,.26-.03l10.86-2.91c.53-.14,.85-.69,.71-1.22-.14-.53-.69-.85-1.22-.71l-10.86,2.91c-.53,.14-.85,.69-.71,1.22Z"/>
<path d="M22.06,40.59l3.2-.85c.53-.14,.85-.69,.71-1.22-.14-.53-.69-.85-1.22-.71l-3.2,.85c-.53,.14-.85,.69-.71,1.22,.12,.45,.52,.74,.97,.74,.08,0,.17-.01,.26-.03Z"/>
<path d="M28.29,39.96l-5.97,1.6c-.53,.14-.85,.69-.71,1.22,.12,.45,.52,.74,.97,.74,.09,0,.17-.01,.26-.03l5.97-1.6c.53-.14,.85-.69,.71-1.22s-.69-.85-1.22-.71Z"/>
<path d="M49.52,33.36c-.17-.31-.48-.5-.82-.52-.35-.02-.68,.14-.88,.43l-1.02,1.47-.96-.97c-.26-.26-.64-.36-.99-.25-.35,.1-.62,.39-.7,.75-.02,.07-.42,1.81-2.62,3.14-.47,.29-.62,.9-.34,1.37,.19,.31,.52,.48,.86,.48,.18,0,.35-.05,.52-.14,1.51-.91,2.39-2.01,2.9-2.88l.76,.77c.21,.21,.5,.32,.8,.29,.3-.03,.57-.18,.74-.42l.98-1.41c.41,.34,.95,.68,1.65,.89,1.4,.41,2.96,.15,4.64-.78,.48-.27,.66-.88,.39-1.36-.27-.48-.87-.66-1.36-.39-3.09,1.71-4.32-.08-4.53-.45Z"/>
<path d="M42.51,34.37c-.15-.53-.7-.85-1.23-.7l-1.09,.3c-.53,.15-.85,.7-.7,1.23,.12,.44,.52,.73,.96,.73,.09,0,.18-.01,.27-.04l1.09-.3c.53-.15,.85-.7,.7-1.23Z"/>
<path d="M49.15,48.48c-3.53-.07-3.7-2.23-3.7-2.65,0-.35-.16-.67-.45-.86-.29-.19-.66-.22-.97-.07l-1.62,.76-.34-1.32c-.09-.35-.37-.62-.73-.71-.36-.09-.73,.03-.98,.3-.05,.06-1.27,1.35-3.84,1.41-.55,.01-.99,.47-.98,1.02s.46,.99,1.02,.98c1.76-.04,3.07-.55,3.95-1.05l.27,1.04c.07,.29,.27,.53,.54,.65,.27,.13,.58,.13,.85,0l1.55-.73c.18,.5,.48,1.07,.98,1.59,1.01,1.05,2.49,1.6,4.42,1.64h.02c.54,0,.99-.44,1-.98,.01-.55-.43-1.01-.98-1.02Z"/>
</g>
<g id="at"/>
<g id="au"/>
<g id="av"/>
<g id="aw"/>
<g id="ax"/>
</svg>