<?xml version="1.0" encoding="iso-8859-1"?>
<!-- Uploaded to: SVG Repo, www.svgrepo.com, Generator: SVG Repo Mixer Tools -->
<!DOCTYPE svg PUBLIC "-//W3C//DTD SVG 1.1//EN" "http://www.w3.org/Graphics/SVG/1.1/DTD/svg11.dtd">
<svg height="800px" width="800px" version="1.1" id="Capa_1" xmlns="http://www.w3.org/2000/svg" xmlns:xlink="http://www.w3.org/1999/xlink" 
	 viewBox="0 0 297.5 297.5" xml:space="preserve">
<g>
	<g id="XMLID_49_">
		<g>
			<path style="fill:#1ABC9C;" d="M276.34,68.47v0.8H21.17v-0.8c14.68-3.79,26.26-15.37,30.05-30.05h195.07
				C250.08,53.1,261.66,64.68,276.34,68.47z"/>
			<path style="fill:#2ECC71;" d="M276.34,120.24v0.8H21.17v-0.8c14.68-3.8,26.26-15.38,30.05-30.05h195.07
				C250.08,104.86,261.66,116.44,276.34,120.24z"/>
			<path style="fill:#27AE60;" d="M276.34,172v57.03c-14.68,3.79-26.26,15.37-30.05,30.05H51.22
				c-3.79-14.68-15.37-26.26-30.05-30.05V172c14.68-3.79,26.26-15.37,30.05-30.05h195.07C250.08,156.63,261.66,168.21,276.34,172z
				 M235.03,200.52c0-4.77-3.86-8.63-8.63-8.63c-4.76,0-8.63,3.86-8.63,8.63c0,4.76,3.87,8.62,8.63,8.62
				C231.17,209.14,235.03,205.28,235.03,200.52z M193.72,200.52c0-24.8-20.17-44.97-44.97-44.97c-24.79,0-44.97,20.17-44.97,44.97
				c0,24.79,20.18,44.96,44.97,44.96C173.55,245.48,193.72,225.31,193.72,200.52z M79.73,200.52c0-4.77-3.86-8.63-8.63-8.63
				c-4.76,0-8.62,3.86-8.62,8.63c0,4.76,3.86,8.62,8.62,8.62C75.87,209.14,79.73,205.28,79.73,200.52z"/>
			<path style="fill:#A5C63B;" d="M148.75,176.46c13.27,0,24.06,10.79,24.06,24.06c0,13.26-10.79,24.05-24.06,24.05
				c-13.26,0-24.05-10.79-24.05-24.05C124.7,187.25,135.49,176.46,148.75,176.46z"/>
			<path d="M297.25,27.96v241.58c0,5.77-4.68,10.45-10.45,10.45H10.71c-5.77,0-10.46-4.68-10.46-10.45V27.96
				c0-5.77,4.69-10.45,10.46-10.45H286.8C292.57,17.51,297.25,22.19,297.25,27.96z M276.34,259.08v-14.64
				c-6.6,2.76-11.88,8.04-14.64,14.64H276.34z M276.34,229.03V172c-14.68-3.79-26.26-15.37-30.05-30.05H51.22
				c-3.79,14.68-15.37,26.26-30.05,30.05v57.03c14.68,3.79,26.26,15.37,30.05,30.05h195.07
				C250.08,244.4,261.66,232.82,276.34,229.03z M276.34,156.59v-14.64H261.7C264.46,148.55,269.74,153.83,276.34,156.59z
				 M276.34,121.04v-0.8c-14.68-3.8-26.26-15.38-30.05-30.05H51.22c-3.79,14.67-15.37,26.25-30.05,30.05v0.8H276.34z M276.34,104.82
				V90.19H261.7C264.46,96.78,269.74,102.07,276.34,104.82z M276.34,69.27v-0.8c-14.68-3.79-26.26-15.37-30.05-30.05H51.22
				C47.43,53.1,35.85,64.68,21.17,68.47v0.8H276.34z M276.34,53.06V38.42H261.7C264.46,45.02,269.74,50.3,276.34,53.06z
				 M35.81,38.42H21.17v14.64C27.76,50.3,33.05,45.02,35.81,38.42z M35.81,90.19H21.17v14.63C27.76,102.07,33.05,96.78,35.81,90.19z
				 M35.81,141.95H21.17v14.64C27.76,153.83,33.05,148.55,35.81,141.95z M21.17,259.08h14.64c-2.76-6.6-8.05-11.88-14.64-14.64
				V259.08z"/>
			<path d="M226.4,191.89c4.77,0,8.63,3.86,8.63,8.63c0,4.76-3.86,8.62-8.63,8.62c-4.76,0-8.63-3.86-8.63-8.62
				C217.77,195.75,221.64,191.89,226.4,191.89z"/>
			<path d="M148.75,155.55c24.8,0,44.97,20.17,44.97,44.97c0,24.79-20.17,44.96-44.97,44.96c-24.79,0-44.97-20.17-44.97-44.96
				C103.78,175.72,123.96,155.55,148.75,155.55z M172.81,200.52c0-13.27-10.79-24.06-24.06-24.06c-13.26,0-24.05,10.79-24.05,24.06
				c0,13.26,10.79,24.05,24.05,24.05C162.02,224.57,172.81,213.78,172.81,200.52z"/>
			<path d="M71.1,191.89c4.77,0,8.63,3.86,8.63,8.63c0,4.76-3.86,8.62-8.63,8.62c-4.76,0-8.62-3.86-8.62-8.62
				C62.48,195.75,66.34,191.89,71.1,191.89z"/>
		</g>
		<g>
		</g>
	</g>
</g>
</svg>