<?xml version="1.0" encoding="iso-8859-1"?>
<!-- Uploaded to: SVG Repo, www.svgrepo.com, Generator: SVG Repo Mixer Tools -->
<svg version="1.1" id="Layer_1" xmlns="http://www.w3.org/2000/svg" xmlns:xlink="http://www.w3.org/1999/xlink" 
	 viewBox="0 0 392.857 392.857" xml:space="preserve">
<rect x="21.851" y="55.951" style="fill:#FFFFFF;" width="348.962" height="270.093"/>
<path style="fill:#194F82;" d="M381.737,34.166H10.925C4.913,34.166,0,39.014,0,45.091V336.97c0,6.012,4.848,10.925,10.925,10.925
	h55.79c0,6.012,4.848,10.796,10.925,10.796h33.164c6.012,0,10.925-4.848,10.925-10.796h149.398c0,6.012,4.848,10.796,10.925,10.796
	h33.164c6.012,0,10.925-4.848,10.925-10.796h55.79c6.012,0,10.925-4.848,10.925-10.925V45.026
	C392.598,39.014,387.749,34.166,381.737,34.166z M370.812,326.044H21.851V55.951h348.962L370.812,326.044L370.812,326.044z"/>
<rect x="43.636" y="77.673" style="fill:#56ACE0;" width="305.325" height="226.457"/>
<rect x="215.273" y="117.689" style="fill:#FFC10D;" width="93.22" height="29.22"/>
<path style="fill:#194F82;" d="M319.418,95.903H204.347c-6.012,0-10.925,4.848-10.925,10.925v51.006
	c0,6.012,4.848,10.925,10.925,10.925h115.071c6.012,0,10.925-4.848,10.925-10.925v-51.006
	C330.343,100.751,325.43,95.903,319.418,95.903z M308.558,146.909h-93.285v-29.22h93.22v29.22H308.558z"/>
<path style="fill:#FFC10D;" d="M117.204,171.087c-10.925,0-19.717,8.857-19.717,19.717c0,10.925,8.857,19.717,19.717,19.717
	c10.925,0,19.717-8.857,19.717-19.717S128.129,171.087,117.204,171.087z"/>
<g>
	<path style="fill:#194F82;" d="M161.164,179.943h-3.943c-3.879-14.158-14.998-25.277-29.156-29.156v-3.943
		c0-6.012-4.848-10.925-10.925-10.925c-6.077,0-10.925,4.848-10.925,10.925v3.943c-14.158,3.879-25.277,14.998-29.156,29.156h-3.943
		c-6.012,0-10.925,4.848-10.925,10.925c0,6.012,4.848,10.925,10.925,10.925h3.943c3.879,14.158,14.998,25.277,29.156,29.156v3.943
		c0,6.012,4.848,10.925,10.925,10.925c6.077,0,10.925-4.848,10.925-10.925v-3.943c14.158-3.879,25.277-14.998,29.156-29.156h3.943
		c6.012,0,10.925-4.848,10.925-10.925C172.089,184.857,167.176,179.943,161.164,179.943z M117.204,210.586
		c-10.925,0-19.717-8.857-19.717-19.717c0-10.925,8.857-19.717,19.717-19.717c10.925,0,19.717,8.857,19.717,19.717
		C136.921,201.729,128.129,210.586,117.204,210.586z"/>
	<path style="fill:#194F82;" d="M217.277,210.909h-12.929c-6.012,0-10.925-4.848-10.925-10.925c0-6.012,4.848-10.925,10.925-10.925
		h12.929c6.012,0,10.925,4.848,10.925,10.925C228.202,206.061,223.289,210.909,217.277,210.909z"/>
	<path style="fill:#194F82;" d="M268.347,210.909h-12.929c-6.012,0-10.925-4.848-10.925-10.925c0-6.012,4.848-10.925,10.925-10.925
		h12.929c6.012,0,10.925,4.848,10.925,10.925C279.273,205.996,274.36,210.909,268.347,210.909z"/>
	<path style="fill:#194F82;" d="M319.418,210.909h-12.929c-6.012,0-10.925-4.848-10.925-10.925c0-6.012,4.848-10.925,10.925-10.925
		h12.929c6.012,0,10.925,4.848,10.925,10.925C330.343,206.061,325.43,210.909,319.418,210.909z"/>
	<path style="fill:#194F82;" d="M217.277,248.339h-12.929c-6.012,0-10.925-4.848-10.925-10.925c0-6.077,4.848-10.925,10.925-10.925
		h12.929c6.012,0,10.925,4.848,10.925,10.925C228.202,243.491,223.289,248.339,217.277,248.339z"/>
	<path style="fill:#194F82;" d="M268.347,248.339h-12.929c-6.012,0-10.925-4.848-10.925-10.925c0-6.077,4.848-10.925,10.925-10.925
		h12.929c6.012,0,10.925,4.848,10.925,10.925C279.273,243.491,274.36,248.339,268.347,248.339z"/>
	<path style="fill:#194F82;" d="M319.418,248.339h-12.929c-6.012,0-10.925-4.848-10.925-10.925c0-6.077,4.848-10.925,10.925-10.925
		h12.929c6.012,0,10.925,4.848,10.925,10.925C330.343,243.491,325.43,248.339,319.418,248.339z"/>
	<path style="fill:#194F82;" d="M217.277,285.834h-12.929c-6.012,0-10.925-4.848-10.925-10.925c0-6.012,4.848-10.925,10.925-10.925
		h12.929c6.012,0,10.925,4.848,10.925,10.925C228.137,280.986,223.289,285.834,217.277,285.834z"/>
	<path style="fill:#194F82;" d="M268.347,285.834h-12.929c-6.012,0-10.925-4.848-10.925-10.925c0-6.012,4.848-10.925,10.925-10.925
		h12.929c6.012,0,10.925,4.848,10.925,10.925S274.36,285.834,268.347,285.834z"/>
	<path style="fill:#194F82;" d="M319.418,285.834h-12.929c-6.012,0-10.925-4.848-10.925-10.925c0-6.012,4.848-10.925,10.925-10.925
		h12.929c6.012,0,10.925,4.848,10.925,10.925S325.43,285.834,319.418,285.834z"/>
</g>
</svg>